<svg width="24.000000" height="24.000000" viewBox="0 0 24 24" fill="none" xmlns="http://www.w3.org/2000/svg" xmlns:xlink="http://www.w3.org/1999/xlink">
	<desc>
			Created with Pixso.
	</desc>
	<defs>
		<clipPath id="clip6_204">
			<rect id="angle-right" width="24.000000" height="24.000000" fill="white" fill-opacity="0"/>
		</clipPath>
	</defs>
	<rect id="angle-right" width="24.000000" height="24.000000" fill="#FFFFFF" fill-opacity="0"/>
	<g clip-path="url(#clip6_204)">
		<path id="Vector" d="M14.8301 11.29L10.5903 7.05005C10.4971 6.9563 10.3867 6.88184 10.2646 6.83105C10.1431 6.78027 10.0122 6.75415 9.88037 6.75415C9.74805 6.75415 9.61768 6.78027 9.49561 6.83105C9.37354 6.88184 9.26318 6.9563 9.17041 7.05005C8.98389 7.2373 8.87939 7.49072 8.87939 7.75488C8.87939 8.01904 8.98389 8.27271 9.17041 8.45996L12.71 12L9.17041 15.54C8.98389 15.7273 8.87939 15.9807 8.87939 16.2449C8.87939 16.509 8.98389 16.7627 9.17041 16.95C9.26367 17.0427 9.37451 17.116 9.49609 17.1658C9.61816 17.2156 9.74854 17.2407 9.88037 17.24C10.0117 17.2407 10.1421 17.2156 10.2642 17.1658C10.3857 17.116 10.4966 17.0427 10.5903 16.95L14.8301 12.71C14.9238 12.6169 14.9985 12.5063 15.0493 12.3845C15.0996 12.2627 15.126 12.1321 15.126 12C15.126 11.8679 15.0996 11.7373 15.0493 11.6155C14.9985 11.4934 14.9238 11.3828 14.8301 11.29Z" fill="#000000" fill-opacity="1.000000" fill-rule="nonzero"/>
	</g>
</svg>
