<svg width="24.000000" height="24.000000" viewBox="0 0 24 24" fill="none" xmlns="http://www.w3.org/2000/svg" xmlns:xlink="http://www.w3.org/1999/xlink">
	<desc>
			Created with Pixso.
	</desc>
	<defs>
		<clipPath id="clip6_212">
			<rect id="angle-left" width="24.000000" height="24.000000" fill="white" fill-opacity="0"/>
		</clipPath>
	</defs>
	<rect id="angle-left" width="24.000000" height="24.000000" fill="#FFFFFF" fill-opacity="0"/>
	<g clip-path="url(#clip6_212)">
		<path id="Vector" d="M11.29 12L14.8296 8.45996C15.0161 8.27271 15.1206 8.01904 15.1206 7.75488C15.1206 7.49072 15.0161 7.2373 14.8296 7.05005C14.7368 6.9563 14.6265 6.88184 14.5044 6.83105C14.3823 6.78027 14.252 6.75415 14.1196 6.75415C13.9878 6.75415 13.8569 6.78027 13.7354 6.83105C13.6133 6.88184 13.5029 6.9563 13.4097 7.05005L9.16992 11.29C9.07617 11.3828 9.00146 11.4934 8.95117 11.6155C8.90039 11.7373 8.87402 11.8679 8.87402 12C8.87402 12.1321 8.90039 12.2627 8.95117 12.3845C9.00146 12.5063 9.07617 12.6169 9.16992 12.71L13.4097 17C13.5034 17.0925 13.6143 17.166 13.7358 17.2158C13.8579 17.2654 13.9883 17.2908 14.1196 17.29C14.2515 17.2908 14.3818 17.2654 14.5039 17.2158C14.6255 17.166 14.7363 17.0925 14.8296 17C15.0161 16.8125 15.1206 16.5591 15.1206 16.2949C15.1206 16.0308 15.0161 15.7773 14.8296 15.5898L11.29 12Z" fill="#000000" fill-opacity="1.000000" fill-rule="nonzero"/>
	</g>
</svg>
