<svg width="24.000000" height="24.000000" viewBox="0 0 24 24" fill="none" xmlns="http://www.w3.org/2000/svg" xmlns:xlink="http://www.w3.org/1999/xlink">
	<desc>
			Created with Pixso.
	</desc>
	<defs>
		<clipPath id="clip22_997">
			<rect id="angle-up" width="24.000000" height="24.000000" fill="white" fill-opacity="0"/>
		</clipPath>
	</defs>
	<g clip-path="url(#clip22_997)">
		<path id="Vector" d="M17 13.4102L12.71 9.17017C12.6172 9.07642 12.5068 9.00195 12.3848 8.95117C12.2627 8.90039 12.1323 8.87427 12 8.87427C11.8682 8.87427 11.7373 8.90039 11.6157 8.95117C11.4937 9.00195 11.3833 9.07642 11.29 9.17017L7.05029 13.4102C6.95654 13.5029 6.88184 13.6135 6.83154 13.7356C6.78076 13.8574 6.75439 13.988 6.75439 14.1201C6.75439 14.2522 6.78076 14.3828 6.83154 14.5046C6.88184 14.6265 6.95654 14.7371 7.05029 14.8301C7.23779 15.0164 7.49121 15.1208 7.75537 15.1208C8.01953 15.1208 8.27295 15.0164 8.45996 14.8301L12 11.29L15.54 14.8301C15.7266 15.0149 15.978 15.1189 16.2402 15.1201C16.3716 15.1208 16.5024 15.0957 16.624 15.0459C16.7461 14.9961 16.8569 14.9229 16.9502 14.8301C17.0474 14.7405 17.1255 14.6326 17.1807 14.5125C17.2358 14.3923 17.2666 14.2625 17.2715 14.1304C17.2759 13.9985 17.2544 13.8667 17.208 13.7432C17.1611 13.6194 17.0908 13.5063 17 13.4102Z" fill="#000000" fill-opacity="1.000000" fill-rule="nonzero"/>
	</g>
</svg>
