<svg width="24.000000" height="24.000000" viewBox="0 0 24 24" fill="none" xmlns="http://www.w3.org/2000/svg" xmlns:xlink="http://www.w3.org/1999/xlink">
	<desc>
			Created with Pixso.
	</desc>
	<defs>
		<clipPath id="clip22_1588">
			<rect id="arrow-up" width="24.000000" height="24.000000" fill="white" fill-opacity="0"/>
		</clipPath>
	</defs>
	<g clip-path="url(#clip22_1588)">
		<path id="Vector" d="M17.71 11.2898L12.71 6.28979C12.6152 6.19897 12.5029 6.12744 12.3804 6.07983C12.1367 5.97998 11.8638 5.97998 11.6201 6.07983C11.4976 6.12744 11.3853 6.19897 11.29 6.28979L6.29004 11.2898C6.19678 11.3831 6.12305 11.4939 6.07275 11.6157C6.02197 11.7375 5.99609 11.8679 5.99609 12C5.99609 12.2661 6.10205 12.5215 6.29004 12.71C6.47852 12.8982 6.73389 13.0039 7 13.0039C7.2666 13.0039 7.52197 12.8982 7.70996 12.71L11 9.40991L11 17C11 17.2651 11.1055 17.5195 11.293 17.707C11.4805 17.8945 11.7349 18 12 18C12.2656 18 12.5195 17.8945 12.7075 17.707C12.895 17.5195 13 17.2651 13 17L13 9.40991L16.29 12.71C16.3833 12.8037 16.4937 12.8779 16.6157 12.9287C16.7373 12.9795 16.8682 13.0056 17 13.0056C17.1323 13.0056 17.2627 12.9795 17.3848 12.9287C17.5068 12.8779 17.6172 12.8037 17.71 12.71C17.8037 12.6169 17.8784 12.5063 17.9292 12.3845C17.98 12.2627 18.0059 12.1318 18.0059 12C18.0059 11.8679 17.98 11.7371 17.9292 11.6152C17.8784 11.4934 17.8037 11.3828 17.71 11.2898Z" fill="#000000" fill-opacity="1.000000" fill-rule="nonzero"/>
	</g>
</svg>
