<svg width="24.000000" height="24.000000" viewBox="0 0 24 24" fill="none" xmlns="http://www.w3.org/2000/svg" xmlns:xlink="http://www.w3.org/1999/xlink">
	<desc>
			Created with Pixso.
	</desc>
	<defs>
		<clipPath id="clip22_1591">
			<rect id="arrow-down" width="24.000000" height="24.000000" fill="white" fill-opacity="0"/>
		</clipPath>
	</defs>
	<g clip-path="url(#clip22_1591)">
		<path id="Vector" d="M17.71 11.29C17.6172 11.1963 17.5068 11.1218 17.3848 11.071C17.2627 11.0203 17.1323 10.9941 17 10.9941C16.8682 10.9941 16.7373 11.0203 16.6157 11.071C16.4937 11.1218 16.3833 11.1963 16.29 11.29L13 14.5901L13 7C13 6.73486 12.895 6.48047 12.7075 6.29297C12.5195 6.10547 12.2656 6 12 6C11.7349 6 11.4805 6.10547 11.293 6.29297C11.1055 6.48047 11 6.73486 11 7L11 14.5901L7.70996 11.29C7.52197 11.1018 7.2666 10.9958 7 10.9958C6.73389 10.9958 6.47852 11.1018 6.29004 11.29C6.10205 11.4783 5.99609 11.7336 5.99609 12C5.99609 12.2664 6.10205 12.5217 6.29004 12.71L11.29 17.71C11.3853 17.801 11.4976 17.8723 11.6201 17.9199C11.7397 17.9729 11.8691 18.0002 12 18.0002C12.1309 18.0002 12.2603 17.9729 12.3804 17.9199C12.5029 17.8723 12.6152 17.801 12.71 17.71L17.71 12.71C17.8037 12.6169 17.8784 12.5063 17.9292 12.3845C17.98 12.2627 18.0059 12.1321 18.0059 12C18.0059 11.8679 17.98 11.7373 17.9292 11.6155C17.8784 11.4937 17.8037 11.3831 17.71 11.29Z" fill="#000000" fill-opacity="1.000000" fill-rule="nonzero"/>
	</g>
</svg>
