<svg width="24.000000" height="24.000000" viewBox="0 0 24 24" fill="none" xmlns="http://www.w3.org/2000/svg" xmlns:xlink="http://www.w3.org/1999/xlink">
	<desc>
			Created with Pixso.
	</desc>
	<defs>
		<clipPath id="clip454_902">
			<rect id="bars" width="24.000000" height="24.000000" fill="white" fill-opacity="0"/>
		</clipPath>
	</defs>
	<rect id="bars" width="24.000000" height="24.000000" fill="#FFFFFF" fill-opacity="0"/>
	<g clip-path="url(#clip454_902)">
		<path id="Vector" d="M3 8L21 8C21.2651 8 21.5195 7.89453 21.707 7.70703C21.8945 7.51953 22 7.26514 22 7C22 6.73486 21.8945 6.48047 21.707 6.29297C21.5195 6.10547 21.2651 6 21 6L3 6C2.73486 6 2.48047 6.10547 2.29297 6.29297C2.10547 6.48047 2 6.73486 2 7C2 7.26514 2.10547 7.51953 2.29297 7.70703C2.48047 7.89453 2.73486 8 3 8ZM21 16L3 16C2.73486 16 2.48047 16.1055 2.29297 16.293C2.10547 16.4805 2 16.7349 2 17C2 17.2651 2.10547 17.5195 2.29297 17.707C2.48047 17.8945 2.73486 18 3 18L21 18C21.2651 18 21.5195 17.8945 21.707 17.707C21.8945 17.5195 22 17.2651 22 17C22 16.7349 21.8945 16.4805 21.707 16.293C21.5195 16.1055 21.2651 16 21 16ZM21 11L3 11C2.73486 11 2.48047 11.1055 2.29297 11.293C2.10547 11.4805 2 11.7349 2 12C2 12.2651 2.10547 12.5195 2.29297 12.707C2.48047 12.8945 2.73486 13 3 13L21 13C21.2651 13 21.5195 12.8945 21.707 12.707C21.8945 12.5195 22 12.2651 22 12C22 11.7349 21.8945 11.4805 21.707 11.293C21.5195 11.1055 21.2651 11 21 11Z" fill="#000000" fill-opacity="1.000000" fill-rule="nonzero"/>
	</g>
</svg>
