<svg width="24.000000" height="24.000000" viewBox="0 0 24 24" fill="none" xmlns="http://www.w3.org/2000/svg" xmlns:xlink="http://www.w3.org/1999/xlink">
	<desc>
			Created with Pixso.
	</desc>
	<defs>
		<clipPath id="clip22_1682">
			<rect id="close" width="24.000000" height="24.000000" fill="white" fill-opacity="0"/>
		</clipPath>
	</defs>
	<rect id="close" width="24.000000" height="24.000000" fill="#FFFFFF" fill-opacity="0"/>
	<g clip-path="url(#clip22_1682)">
		<path id="Vector" d="M13.4099 12L17.71 7.70996C17.8983 7.52197 18.004 7.2666 18.004 7C18.004 6.73389 17.8983 6.47852 17.71 6.29004C17.5216 6.10205 17.2662 5.99609 16.9999 5.99609C16.7336 5.99609 16.4783 6.10205 16.2899 6.29004L11.9999 10.5903L7.70996 6.29004C7.52161 6.10205 7.26624 5.99609 6.99994 5.99609C6.73364 5.99609 6.47827 6.10205 6.28992 6.29004C6.10162 6.47852 5.99585 6.73389 5.99585 7C5.99585 7.2666 6.10162 7.52197 6.28992 7.70996L10.59 12L6.28992 16.29C6.19623 16.3833 6.12183 16.4937 6.07104 16.6157C6.02026 16.7373 5.99414 16.8682 5.99414 17C5.99414 17.1323 6.02026 17.2627 6.07104 17.3848C6.12183 17.5068 6.19623 17.6172 6.28992 17.71C6.38287 17.8037 6.49353 17.8784 6.61536 17.9292C6.73724 17.98 6.86792 18.0059 6.99994 18.0059C7.13196 18.0059 7.26263 17.98 7.38452 17.9292C7.50635 17.8784 7.617 17.8037 7.70996 17.71L11.9999 13.4102L16.2899 17.71C16.3829 17.8037 16.4935 17.8784 16.6154 17.9292C16.7372 17.98 16.8679 18.0059 16.9999 18.0059C17.132 18.0059 17.2626 17.98 17.3845 17.9292C17.5063 17.8784 17.617 17.8037 17.71 17.71C17.8036 17.6172 17.8781 17.5068 17.9288 17.3848C17.9796 17.2627 18.0057 17.1323 18.0057 17C18.0057 16.8682 17.9796 16.7373 17.9288 16.6157C17.8781 16.4937 17.8036 16.3833 17.71 16.29L13.4099 12Z" fill="#ABABAB" fill-opacity="1.000000" fill-rule="nonzero"/>
	</g>
</svg>
