<svg width="24.000000" height="24.000000" viewBox="0 0 24 24" fill="none" xmlns="http://www.w3.org/2000/svg" xmlns:xlink="http://www.w3.org/1999/xlink">
	<desc>
			Created with Pixso.
	</desc>
	<defs>
		<clipPath id="clip6_563">
			<rect id="close" width="24.000000" height="24.000000" fill="white" fill-opacity="0"/>
		</clipPath>
	</defs>
	<rect id="close" width="24.000000" height="24.000000" fill="#FFFFFF" fill-opacity="0"/>
	<g clip-path="url(#clip6_563)">
		<path id="Vector" d="M13.4102 12L17.71 7.70996C17.8984 7.52173 18.0039 7.26636 18.0039 7C18.0039 6.73364 17.8984 6.47827 17.71 6.29004C17.5215 6.10156 17.2661 5.99585 17 5.99585C16.7334 5.99585 16.478 6.10156 16.29 6.29004L12 10.5898L7.70996 6.29004C7.52148 6.10156 7.26611 5.99585 7 5.99585C6.7334 5.99585 6.47803 6.10156 6.29004 6.29004C6.10156 6.47827 5.99561 6.73364 5.99561 7C5.99561 7.26636 6.10156 7.52173 6.29004 7.70996L10.5898 12L6.29004 16.29C6.19629 16.3828 6.12158 16.4934 6.07129 16.6155C6.02051 16.7373 5.99414 16.8679 5.99414 17C5.99414 17.1318 6.02051 17.2627 6.07129 17.3845C6.12158 17.5063 6.19629 17.6169 6.29004 17.71C6.38281 17.8037 6.49365 17.8782 6.61523 17.9287C6.7373 17.9795 6.86816 18.0059 7 18.0059C7.13184 18.0059 7.2627 17.9795 7.38428 17.9287C7.50635 17.8782 7.61719 17.8037 7.70996 17.71L12 13.4099L16.29 17.71C16.3828 17.8037 16.4937 17.8782 16.6152 17.9287C16.7373 17.9795 16.8682 18.0059 17 18.0059C17.1318 18.0059 17.2627 17.9795 17.3843 17.9287C17.5063 17.8782 17.6172 17.8037 17.71 17.71C17.8037 17.6169 17.8779 17.5063 17.9287 17.3845C17.9795 17.2627 18.0059 17.1318 18.0059 17C18.0059 16.8679 17.9795 16.7373 17.9287 16.6155C17.8779 16.4934 17.8037 16.3828 17.71 16.29L13.4102 12Z" fill="#000000" fill-opacity="1.000000" fill-rule="nonzero"/>
	</g>
</svg>
