<svg width="24.000000" height="24.000000" viewBox="0 0 24 24" fill="none" xmlns="http://www.w3.org/2000/svg" xmlns:xlink="http://www.w3.org/1999/xlink">
	<desc>
			Created with Pixso.
	</desc>
	<defs>
		<clipPath id="clip111_837">
			<rect id="copy" width="24.000000" height="24.000000" fill="white" fill-opacity="0"/>
		</clipPath>
	</defs>
	<g clip-path="url(#clip111_837)">
		<path id="Vector" d="M7.5 6L7.5 3C7.5 2.73 7.6 2.48 7.79 2.29C7.98 2.1 8.23 2 8.5 2L20.5 2C20.76 2 21.01 2.1 21.2 2.29C21.39 2.48 21.5 2.73 21.5 3L21.5 17C21.5 17.26 21.39 17.51 21.2 17.7C21.01 17.89 20.76 18 20.5 18L17.5 18L17.5 21C17.5 21.55 17.04 22 16.49 22L4.5 22C4.37 22 4.24 21.97 4.12 21.92C4 21.87 3.88 21.8 3.79 21.7C3.7 21.61 3.62 21.5 3.57 21.38C3.52 21.26 3.5 21.13 3.5 21L3.5 7C3.5 6.44 3.95 6 4.51 6L7.5 6ZM5.5 8L5.5 20L15.5 20L15.5 8L5.5 8ZM9.5 6L17.5 6L17.5 16L19.5 16L19.5 4L9.5 4L9.5 6Z" fill="#ABABAB" fill-opacity="1.000000" fill-rule="evenodd"/>
	</g>
</svg>
