<svg width="24.000000" height="24.000000" viewBox="0 0 24 24" fill="none" xmlns="http://www.w3.org/2000/svg" xmlns:xlink="http://www.w3.org/1999/xlink">
	<desc>
			Created with Pixso.
	</desc>
	<defs>
		<clipPath id="clip6_681">
			<rect id="done" width="24.000000" height="24.000000" fill="white" fill-opacity="0"/>
		</clipPath>
	</defs>
	<g clip-path="url(#clip6_681)">
		<path id="Vector" d="M18.71 7.21021C18.6172 7.11646 18.5063 7.04199 18.3848 6.99121C18.2627 6.94043 18.1318 6.91431 18 6.91431C17.8682 6.91431 17.7373 6.94043 17.6152 6.99121C17.4937 7.04199 17.3828 7.11646 17.29 7.21021L9.83984 14.6702L6.70996 11.53C6.61328 11.4368 6.49951 11.3635 6.37451 11.3145C6.25 11.2651 6.11621 11.241 5.98242 11.2434C5.84814 11.2456 5.71582 11.2744 5.59277 11.3279C5.46973 11.3813 5.3584 11.4585 5.26514 11.5552C5.17188 11.6516 5.09863 11.7656 5.04932 11.8904C5 12.0154 4.97607 12.1487 4.97803 12.2827C4.98047 12.417 5.00928 12.5493 5.0625 12.6724C5.11621 12.7954 5.19336 12.907 5.29004 13L9.12988 16.8401C9.22314 16.9338 9.3335 17.0083 9.45557 17.0591C9.57715 17.1099 9.70801 17.136 9.83984 17.136C9.97217 17.136 10.1025 17.1099 10.2246 17.0591C10.3462 17.0083 10.457 16.9338 10.5498 16.8401L18.71 8.68018C18.8115 8.58643 18.8926 8.4729 18.9478 8.34619C19.0034 8.21973 19.0317 8.08325 19.0317 7.94507C19.0317 7.80688 19.0034 7.67041 18.9478 7.54395C18.8926 7.41748 18.8115 7.30371 18.71 7.21021Z" fill="#000000" fill-opacity="1.000000" fill-rule="nonzero"/>
	</g>
</svg>
