<svg width="24.000000" height="24.000000" viewBox="0 0 24 24" fill="none" xmlns="http://www.w3.org/2000/svg" xmlns:xlink="http://www.w3.org/1999/xlink">
	<desc>
			Created with Pixso.
	</desc>
	<defs>
		<clipPath id="clip6_543">
			<rect id="edit" width="24.000000" height="24.000000" fill="white" fill-opacity="0"/>
		</clipPath>
	</defs>
	<g clip-path="url(#clip6_543)">
		<path id="Vector" d="M22 7.23999C22.001 7.1084 21.9756 6.97803 21.9258 6.8562C21.876 6.73438 21.8027 6.62354 21.71 6.53003L17.4702 2.29004C17.3765 2.19727 17.2656 2.12402 17.144 2.07422C17.022 2.02441 16.8916 1.99927 16.7603 2C16.6284 1.99927 16.498 2.02441 16.376 2.07422C16.2544 2.12402 16.1436 2.19727 16.0498 2.29004L13.2202 5.12012L2.29004 16.05C2.19727 16.1436 2.12402 16.2544 2.07422 16.3762C2.02441 16.498 1.99902 16.6284 2 16.76L2 21C2 21.2651 2.10547 21.5195 2.29297 21.707C2.48047 21.8948 2.73486 22 3 22L7.24023 22C7.37988 22.0076 7.52002 21.9858 7.65088 21.9358C7.78174 21.8857 7.90088 21.8088 8 21.71L18.8701 10.78L21.71 8C21.8013 7.90308 21.8755 7.7915 21.9302 7.66992C21.9395 7.59033 21.9395 7.50977 21.9302 7.42993C21.9346 7.38354 21.9346 7.33667 21.9302 7.29004L22 7.23999ZM6.83008 20L4 20L4 17.1699L13.9302 7.23999L16.7603 10.0701L6.83008 20ZM18.1699 8.65991L15.3398 5.83008L16.7603 4.41992L19.5801 7.23999L18.1699 8.65991Z" fill="#000000" fill-opacity="1.000000" fill-rule="nonzero"/>
	</g>
</svg>
