<svg width="24.000000" height="24.000000" viewBox="0 0 24 24" fill="none" xmlns="http://www.w3.org/2000/svg" xmlns:xlink="http://www.w3.org/1999/xlink">
	<desc>
			Created with Pixso.
	</desc>
	<defs>
		<clipPath id="clip108_4311">
			<rect id="exclamation-octagon" width="24.000000" height="24.000000" fill="white" fill-opacity="0"/>
		</clipPath>
	</defs>
	<rect id="exclamation-octagon" width="24.000000" height="24.000000" fill="#FFFFFF" fill-opacity="0"/>
	<g clip-path="url(#clip108_4311)">
		<path id="Vector" d="M12 7C11.73 7 11.48 7.1 11.29 7.29C11.1 7.48 11 7.73 11 8L11 12C11 12.26 11.1 12.51 11.29 12.7C11.48 12.89 11.73 13 12 13C12.26 13 12.51 12.89 12.7 12.7C12.89 12.51 13 12.26 13 12L13 8C13 7.73 12.89 7.48 12.7 7.29C12.51 7.1 12.26 7 12 7ZM12 15C11.8 15 11.6 15.05 11.44 15.16C11.28 15.27 11.15 15.43 11.07 15.61C11 15.79 10.98 16 11.01 16.19C11.05 16.38 11.15 16.56 11.29 16.7C11.43 16.84 11.61 16.94 11.8 16.98C11.99 17.01 12.2 17 12.38 16.92C12.56 16.84 12.72 16.71 12.83 16.55C12.94 16.39 13 16.19 13 16C13 15.73 12.89 15.48 12.7 15.29C12.51 15.1 12.26 15 12 15ZM21.71 7.55L16.44 2.29C16.24 2.1 15.99 2 15.73 2L8.27 2C8 2 7.75 2.1 7.56 2.29L2.28 7.55C2.1 7.75 2 8 2 8.26L2 15.73C2 15.99 2.1 16.24 2.28 16.44L7.56 21.71C7.75 21.89 8 21.99 8.27 22L15.73 22C15.99 21.99 16.24 21.89 16.44 21.71L21.71 16.44C21.89 16.24 21.99 15.99 22 15.73L22 8.26C21.99 8 21.89 7.75 21.71 7.55ZM20 15.3L15.31 20L8.68 20L4 15.3L4 8.69L8.68 4L15.31 4L20 8.69L20 15.3Z" fill="#FF8C39" fill-opacity="1.000000" fill-rule="evenodd"/>
	</g>
</svg>
