<svg width="24.000000" height="24.000000" viewBox="0 0 24 24" fill="none" xmlns="http://www.w3.org/2000/svg" xmlns:xlink="http://www.w3.org/1999/xlink">
	<desc>
			Created with Pixso.
	</desc>
	<defs>
		<clipPath id="clip22_1572">
			<rect id="filter" width="24.000000" height="24.000000" fill="white" fill-opacity="0"/>
		</clipPath>
	</defs>
	<g clip-path="url(#clip22_1572)">
		<path id="Vector" d="M19 2L5 2C4.20459 2 3.44141 2.31616 2.87891 2.87866C2.31592 3.44141 2 4.20435 2 5L2 6.16992C2 6.58301 2.08496 6.99146 2.25 7.37012L2.25 7.42993C2.39111 7.75098 2.59131 8.04272 2.83984 8.29004L9 14.4099L9 21C8.99951 21.1699 9.04248 21.3372 9.125 21.4858C9.20703 21.6345 9.32568 21.76 9.47021 21.8501C9.62891 21.9487 9.81299 22.0005 10 22C10.1567 21.999 10.3105 21.9614 10.4502 21.8899L14.4502 19.8899C14.6147 19.8069 14.7534 19.6797 14.8506 19.5227C14.9478 19.3655 14.9995 19.1846 15 19L15 14.4099L21.1201 8.29004C21.3687 8.04272 21.5688 7.75098 21.71 7.42993L21.71 7.37012C21.8887 6.99438 21.9878 6.58569 22 6.16992L22 5C22 4.20435 21.6841 3.44141 21.1211 2.87866C20.5586 2.31616 19.7954 2 19 2ZM13.29 13.29C13.1973 13.3835 13.124 13.4941 13.0742 13.6162C13.0244 13.738 12.999 13.8684 13 14L13 18.3799L11 19.3799L11 14C11.001 13.8684 10.9756 13.738 10.9258 13.6162C10.876 13.4941 10.8027 13.3835 10.71 13.29L5.41016 8L18.5898 8L13.29 13.29ZM20 6L4 6L4 5C4 4.73486 4.10547 4.48047 4.29297 4.29297C4.48047 4.10547 4.73486 4 5 4L19 4C19.2651 4 19.5195 4.10547 19.707 4.29297C19.8945 4.48047 20 4.73486 20 5L20 6Z" fill="#000000" fill-opacity="1.000000" fill-rule="nonzero"/>
	</g>
</svg>
