<svg width="81.000000" height="44.000000" viewBox="0 0 81 44" fill="none" xmlns="http://www.w3.org/2000/svg" xmlns:xlink="http://www.w3.org/1999/xlink">
	<desc>
			Created with Pixso.
	</desc>
	<defs/>
	<path id="Vector" d="M11.16 15.5L3.16 15.5C2.09 15.5 1.08 15.92 0.33 16.67C-0.42 17.42 -0.84 18.43 -0.84 19.5C-0.84 20.56 -0.42 21.57 0.33 22.32C1.08 23.07 2.09 23.5 3.16 23.5L11.16 23.5C12.22 23.5 13.23 23.07 13.98 22.32C14.73 21.57 15.16 20.56 15.16 19.5C15.16 18.43 14.73 17.42 13.98 16.67C13.23 15.92 12.22 15.5 11.16 15.5ZM78.28 4.13L78.28 3.89C77.13 2.49 75.68 1.37 74.04 0.61C72.4 -0.15 70.6 -0.53 68.8 -0.5L37.08 -0.5C34.14 -0.53 31.29 0.52 29.08 2.45C27.01 4.28 25.65 6.77 25.24 9.5L21.72 29.5C21.41 31.22 21.49 32.99 21.95 34.69C22.4 36.38 23.23 37.95 24.36 39.29C25.48 40.63 26.88 41.71 28.46 42.45C30.04 43.19 31.77 43.57 33.52 43.58L65.28 43.58C68.13 43.62 70.9 42.64 73.1 40.83C75.3 39.01 76.78 36.46 77.28 33.65L80.8 13.65C81.07 11.98 80.99 10.27 80.56 8.62C80.12 6.98 79.34 5.45 78.28 4.13ZM67.32 7.5L53.72 18.54C52.91 19.18 51.89 19.5 50.86 19.41C49.83 19.32 48.88 18.83 48.2 18.05L38.88 7.5L67.32 7.5ZM69.24 32.17C69.07 33.11 68.58 33.96 67.85 34.57C67.11 35.18 66.19 35.51 65.24 35.5L33.52 35.5C32.93 35.49 32.36 35.36 31.84 35.11C31.31 34.86 30.85 34.5 30.48 34.05C30.1 33.61 29.83 33.09 29.68 32.53C29.53 31.97 29.5 31.39 29.6 30.81L32.8 12.69L42.2 23.33C44.24 25.66 47.11 27.1 50.19 27.37C53.28 27.63 56.35 26.68 58.76 24.73L72.51 13.5L69.24 32.17ZM15.16 -0.5L3.16 -0.5C2.09 -0.5 1.08 -0.08 0.33 0.67C-0.42 1.42 -0.84 2.43 -0.84 3.5C-0.84 4.56 -0.42 5.57 0.33 6.32C1.08 7.07 2.09 7.5 3.16 7.5L15.16 7.5C16.22 7.5 17.23 7.07 17.98 6.32C18.73 5.57 19.16 4.56 19.16 3.5C19.16 2.43 18.73 1.42 17.98 0.67C17.23 -0.08 16.22 -0.5 15.16 -0.5Z" fill="#081C00" fill-opacity="1.000000" fill-rule="evenodd"/>
</svg>
