<svg width="24.000000" height="24.000000" viewBox="0 0 24 24" fill="none" xmlns="http://www.w3.org/2000/svg" xmlns:xlink="http://www.w3.org/1999/xlink">
	<desc>
			Created with Pixso.
	</desc>
	<defs>
		<clipPath id="clip6_784">
			<rect id="plus" width="24.000000" height="24.000000" fill="white" fill-opacity="0"/>
		</clipPath>
	</defs>
	<g clip-path="url(#clip6_784)">
		<path id="Vector" d="M19 11L13 11L13 5C13 4.73486 12.8945 4.48047 12.707 4.29297C12.5195 4.10547 12.2651 4 12 4C11.7349 4 11.4805 4.10547 11.293 4.29297C11.1055 4.48047 11 4.73486 11 5L11 11L5 11C4.73486 11 4.48047 11.1055 4.29297 11.293C4.10547 11.4805 4 11.7349 4 12C4 12.2651 4.10547 12.5195 4.29297 12.707C4.48047 12.8945 4.73486 13 5 13L11 13L11 19C11 19.2651 11.1055 19.5195 11.293 19.707C11.4805 19.8945 11.7349 20 12 20C12.2651 20 12.5195 19.8945 12.707 19.707C12.8945 19.5195 13 19.2651 13 19L13 13L19 13C19.2651 13 19.5195 12.8945 19.707 12.707C19.8945 12.5195 20 12.2651 20 12C20 11.7349 19.8945 11.4805 19.707 11.293C19.5195 11.1055 19.2651 11 19 11Z" fill="#000000" fill-opacity="1.000000" fill-rule="nonzero"/>
	</g>
</svg>
