<svg width="24.000000" height="24.000000" viewBox="0 0 24 24" fill="none" xmlns="http://www.w3.org/2000/svg" xmlns:xlink="http://www.w3.org/1999/xlink">
	<desc>
			Created with Pixso.
	</desc>
	<defs>
		<clipPath id="clip5_127">
			<rect id="search" width="24.000000" height="24.000000" fill="white" fill-opacity="0"/>
		</clipPath>
	</defs>
	<g clip-path="url(#clip5_127)">
		<path id="Vector" d="M21.71 20.2898L18 16.6099C19.4399 14.8142 20.1372 12.5352 19.9487 10.2412C19.7603 7.94727 18.6997 5.81274 16.9854 4.27661C15.2715 2.74048 13.0337 1.91943 10.7329 1.98242C8.43213 2.04541 6.24268 2.98755 4.61523 4.61499C2.9873 6.24268 2.04541 8.43188 1.98242 10.7329C1.91943 13.0337 2.74023 15.2712 4.27637 16.9854C5.8125 18.6995 7.94727 19.76 10.2412 19.9487C12.5352 20.1375 14.8145 19.4399 16.6099 18L20.29 21.6799C20.3828 21.7737 20.4937 21.8481 20.6152 21.8987C20.7373 21.9495 20.8677 21.9756 21 21.9756C21.1318 21.9756 21.2627 21.9495 21.3843 21.8987C21.5063 21.8481 21.6167 21.7737 21.71 21.6799C21.8901 21.4934 21.9907 21.2441 21.9907 20.9849C21.9907 20.7256 21.8901 20.4763 21.71 20.2898ZM11 18C9.61523 18 8.26221 17.5894 7.11084 16.8203C5.95996 16.051 5.0625 14.9578 4.53271 13.6787C4.00293 12.3997 3.86426 10.9922 4.13428 9.63428C4.4043 8.27637 5.07129 7.02905 6.05029 6.05005C7.0293 5.07129 8.27637 4.40454 9.63428 4.13452C10.9922 3.86426 12.3994 4.00293 13.6787 4.53271C14.958 5.0625 16.0508 5.95972 16.8203 7.11084C17.5894 8.26196 18 9.61548 18 11C18 12.8564 17.2622 14.637 15.9497 15.9497C14.6367 17.2625 12.8564 18 11 18Z" fill="#000000" fill-opacity="1.000000" fill-rule="nonzero"/>
	</g>
</svg>
