<svg width="24.000000" height="24.000000" viewBox="0 0 24 24" fill="none" xmlns="http://www.w3.org/2000/svg" xmlns:xlink="http://www.w3.org/1999/xlink">
	<desc>
			Created with Pixso.
	</desc>
	<defs>
		<clipPath id="clip5_122">
			<rect id="shopping-bag" width="24.000000" height="24.000000" fill="white" fill-opacity="0"/>
		</clipPath>
	</defs>
	<rect id="shopping-bag" width="24.000000" height="24.000000" fill="#FFFFFF" fill-opacity="0"/>
	<g clip-path="url(#clip5_122)">
		<path id="Vector" d="M19 7L16 7L16 6C16 4.93921 15.5786 3.92163 14.8286 3.17163C14.0781 2.42139 13.061 2 12 2C10.939 2 9.92188 2.42139 9.17139 3.17163C8.42139 3.92163 8 4.93921 8 6L8 7L5 7C4.73486 7 4.48047 7.10547 4.29297 7.29297C4.10547 7.48047 4 7.73486 4 8L4 19C4 19.7957 4.31592 20.5586 4.87891 21.1213C5.44141 21.6838 6.20459 22 7 22L17 22C17.7954 22 18.5586 21.6838 19.1211 21.1213C19.6841 20.5586 20 19.7957 20 19L20 8C20 7.73486 19.8945 7.48047 19.707 7.29297C19.5195 7.10547 19.2651 7 19 7ZM10 6C10 5.46948 10.2109 4.96094 10.5859 4.58569C10.9609 4.21069 11.4697 4 12 4C12.5303 4 13.0391 4.21069 13.4141 4.58569C13.7891 4.96094 14 5.46948 14 6L14 7L10 7L10 6ZM18 19C18 19.2651 17.8945 19.5195 17.707 19.707C17.5195 19.8945 17.2651 20 17 20L7 20C6.73486 20 6.48047 19.8945 6.29297 19.707C6.10547 19.5195 6 19.2651 6 19L6 9L8 9L8 10C8 10.2651 8.10547 10.5195 8.29297 10.707C8.48047 10.8945 8.73486 11 9 11C9.26514 11 9.51953 10.8945 9.70703 10.707C9.89453 10.5195 10 10.2651 10 10L10 9L14 9L14 10C14 10.2651 14.1055 10.5195 14.293 10.707C14.4805 10.8945 14.7349 11 15 11C15.2651 11 15.5195 10.8945 15.707 10.707C15.8945 10.5195 16 10.2651 16 10L16 9L18 9L18 19Z" fill="#000000" fill-opacity="1.000000" fill-rule="nonzero"/>
	</g>
</svg>
