<svg width="28.000000" height="28.000000" viewBox="0 0 28 28" fill="none" xmlns="http://www.w3.org/2000/svg" xmlns:xlink="http://www.w3.org/1999/xlink">
	<desc>
			Created with Pixso.
	</desc>
	<defs>
		<clipPath id="clip6_1069">
			<rect width="28.000000" height="28.000000" fill="white" fill-opacity="0"/>
		</clipPath>
	</defs>
	<rect width="28.000000" height="28.000000" fill="#FFFFFF" fill-opacity="0"/>
	<g clip-path="url(#clip6_1069)">
		<path d="M22.1665 8.16663L18.6665 8.16663L18.6665 6.99988C18.6665 5.76221 18.1748 4.57532 17.2996 3.70007C16.4246 2.82495 15.2375 2.33325 13.9998 2.33325C12.7622 2.33325 11.5752 2.82495 10.7 3.70007C9.82495 4.57532 9.33325 5.76221 9.33325 6.99988L9.33325 8.16663L5.83325 8.16663C5.52368 8.16663 5.22705 8.28955 5.0083 8.5083C4.78931 8.72705 4.6665 9.0238 4.6665 9.33325L4.6665 22.1666C4.6665 23.0948 5.03516 23.9851 5.69165 24.6415C6.3479 25.2979 7.23828 25.6666 8.1665 25.6666L19.8333 25.6666C20.7615 25.6666 21.6516 25.2979 22.3081 24.6415C22.9644 23.9851 23.3333 23.0948 23.3333 22.1666L23.3333 9.33325C23.3333 9.0238 23.2102 8.72705 22.9915 8.5083C22.7727 8.28955 22.4758 8.16663 22.1665 8.16663ZM11.6665 6.99988C11.6665 6.3811 11.9124 5.7876 12.3499 5.34998C12.7876 4.91248 13.3811 4.66663 13.9998 4.66663C14.6187 4.66663 15.2122 4.91248 15.6497 5.34998C16.0874 5.7876 16.3333 6.3811 16.3333 6.99988L16.3333 8.16663L11.6665 8.16663L11.6665 6.99988Z" fill="#081C00" fill-opacity="1.000000" fill-rule="nonzero"/>
		<path d="M19.5659 11.9369C19.4888 11.8513 19.397 11.7833 19.2957 11.7369C19.1946 11.6907 19.0862 11.6667 18.9766 11.6667C18.8669 11.6667 18.7585 11.6907 18.6572 11.7369C18.5562 11.7833 18.4644 11.8513 18.3872 11.9369L12.2026 18.7485L9.60425 15.8815C9.52417 15.7963 9.42944 15.7294 9.32593 15.6844C9.22217 15.6395 9.11157 15.6174 9.00024 15.6196C8.88867 15.6217 8.77881 15.6479 8.67676 15.6968C8.57446 15.7456 8.48218 15.8162 8.40479 15.9043C8.32739 15.9924 8.26636 16.0964 8.22559 16.2104C8.18481 16.3245 8.16479 16.4462 8.16675 16.5687C8.16846 16.6912 8.19238 16.8121 8.23682 16.9246C8.28125 17.0369 8.34521 17.1385 8.42554 17.2236L11.6133 20.73C11.6904 20.8156 11.7822 20.8835 11.8833 20.9298C11.9844 20.9762 12.093 21.0001 12.2026 21.0001C12.3123 21.0001 12.4207 20.9762 12.5217 20.9298C12.623 20.8835 12.7148 20.8156 12.792 20.73L19.5659 13.2791C19.6501 13.1936 19.7175 13.0898 19.7634 12.9744C19.8093 12.8588 19.8333 12.7341 19.8333 12.6079C19.8333 12.4818 19.8093 12.3572 19.7634 12.2416C19.7175 12.1261 19.6501 12.0223 19.5659 11.9369Z" fill="#FFFFFF" fill-opacity="1.000000" fill-rule="evenodd"/>
	</g>
</svg>
