<svg width="24.000000" height="24.000000" viewBox="0 0 24 24" fill="none" xmlns="http://www.w3.org/2000/svg" xmlns:xlink="http://www.w3.org/1999/xlink">
	<desc>
			Created with Pixso.
	</desc>
	<defs>
		<clipPath id="clip6_749">
			<rect id="trash-alt" width="24.000000" height="24.000000" fill="white" fill-opacity="0"/>
		</clipPath>
	</defs>
	<g clip-path="url(#clip6_749)">
		<path id="Vector" d="M10 18C10.2651 18 10.5195 17.8945 10.707 17.707C10.8945 17.5195 11 17.2651 11 17L11 11C11 10.7349 10.8945 10.4805 10.707 10.293C10.5195 10.1055 10.2651 10 10 10C9.73486 10 9.48047 10.1055 9.29297 10.293C9.10547 10.4805 9 10.7349 9 11L9 17C9 17.2651 9.10547 17.5195 9.29297 17.707C9.48047 17.8945 9.73486 18 10 18ZM20 6L16 6L16 5C16 4.20435 15.6841 3.44141 15.1211 2.87866C14.5586 2.31616 13.7954 2 13 2L11 2C10.2046 2 9.44141 2.31616 8.87891 2.87866C8.31592 3.44141 8 4.20435 8 5L8 6L4 6C3.73486 6 3.48047 6.10547 3.29297 6.29297C3.10547 6.48047 3 6.73486 3 7C3 7.26514 3.10547 7.51953 3.29297 7.70703C3.48047 7.89453 3.73486 8 4 8L5 8L5 19C5 19.7957 5.31592 20.5586 5.87891 21.1213C6.44141 21.6838 7.20459 22 8 22L16 22C16.7954 22 17.5586 21.6838 18.1211 21.1213C18.6841 20.5586 19 19.7957 19 19L19 8L20 8C20.2651 8 20.5195 7.89453 20.707 7.70703C20.8945 7.51953 21 7.26514 21 7C21 6.73486 20.8945 6.48047 20.707 6.29297C20.5195 6.10547 20.2651 6 20 6ZM10 5C10 4.73486 10.1055 4.48047 10.293 4.29297C10.4805 4.10547 10.7349 4 11 4L13 4C13.2651 4 13.5195 4.10547 13.707 4.29297C13.8945 4.48047 14 4.73486 14 5L14 6L10 6L10 5ZM17 19C17 19.2651 16.8945 19.5195 16.707 19.707C16.5195 19.8945 16.2651 20 16 20L8 20C7.73486 20 7.48047 19.8945 7.29297 19.707C7.10547 19.5195 7 19.2651 7 19L7 8L17 8L17 19ZM14 18C14.2651 18 14.5195 17.8945 14.707 17.707C14.8945 17.5195 15 17.2651 15 17L15 11C15 10.7349 14.8945 10.4805 14.707 10.293C14.5195 10.1055 14.2651 10 14 10C13.7349 10 13.4805 10.1055 13.293 10.293C13.1055 10.4805 13 10.7349 13 11L13 17C13 17.2651 13.1055 17.5195 13.293 17.707C13.4805 17.8945 13.7349 18 14 18Z" fill="#000000" fill-opacity="1.000000" fill-rule="nonzero"/>
	</g>
</svg>
