<svg width="20.000000" height="16.281250" viewBox="0 0 20 16.2812" fill="none" xmlns="http://www.w3.org/2000/svg" xmlns:xlink="http://www.w3.org/1999/xlink">
	<desc>
			Created with Pixso.
	</desc>
	<defs/>
	<path id="Vector" d="M20 1.95056C19.2483 2.27673 18.4534 2.49231 17.64 2.59058C18.4982 2.07788 19.1413 1.27136 19.45 0.320557C18.6436 0.800659 17.7608 1.13892 16.84 1.32056C16.2245 0.653198 15.405 0.208862 14.5098 0.0574951C13.6147 -0.0939941 12.6945 0.0559082 11.8938 0.483765C11.093 0.911621 10.4569 1.59314 10.0852 2.42139C9.71355 3.24976 9.62729 4.17798 9.84 5.06055C8.20943 4.97815 6.61444 4.55359 5.15865 3.81445C3.70287 3.07532 2.41885 2.03833 1.39 0.77063C1.02914 1.40076 0.83952 2.11438 0.84 2.84058C0.83872 3.51501 1.00422 4.1792 1.32175 4.77417C1.63929 5.36914 2.09902 5.87634 2.66 6.25061C2.00798 6.23291 1.36989 6.05786 0.799999 5.7406L0.799999 5.79065C0.804888 6.73547 1.13599 7.64966 1.73731 8.37854C2.33863 9.10742 3.17326 9.6062 4.1 9.79065C3.74326 9.89917 3.37288 9.95642 3 9.96057C2.74189 9.95764 2.48442 9.9342 2.23 9.89062C2.49391 10.7034 3.00462 11.4137 3.69107 11.9227C4.37753 12.4318 5.20558 12.7141 6.06 12.7306C4.6172 13.8658 2.83588 14.4855 1 14.4906C0.665735 14.4917 0.331736 14.4717 0 14.4305C1.87443 15.6409 4.05881 16.2833 6.29 16.2806C7.82969 16.2966 9.35714 16.0056 10.7831 15.4247C12.2091 14.8438 13.505 13.9845 14.5952 12.8971C15.6854 11.8097 16.548 10.516 17.1326 9.09155C17.7172 7.66699 18.012 6.14038 18 4.60059C18 4.43054 18 4.25061 18 4.07056C18.7847 3.48535 19.4615 2.76807 20 1.95056Z" fill="#081C00" fill-opacity="1.000000" fill-rule="nonzero"/>
</svg>
