<?xml version="1.0" encoding="utf-8"?><svg xmlns="http://www.w3.org/2000/svg" xmlns:xlink="http://www.w3.org/1999/xlink"><symbol fill="none" viewBox="0 0 24 24" id="angle-down" xmlns="http://www.w3.org/2000/svg"><defs><clipPath id="aa"><path fill="#fff" fill-opacity="0" d="M0 0h24v24H0z"/></clipPath></defs><g clip-path="url(#aa)"><path d="M17 9.17a.998.998 0 00-1.41 0L12 12.71 8.46 9.17a.998.998 0 00-1.628.325 1 1 0 00.218 1.095l4.24 4.24a1.003 1.003 0 001.42 0L17 10.59a.993.993 0 00.22-1.095A1 1 0 0017 9.17z" fill="#081C00" fill-rule="evenodd"/></g></symbol><symbol fill="none" viewBox="0 0 24 24" id="angle-left" xmlns="http://www.w3.org/2000/svg"><defs><clipPath id="ba"><path fill="#fff" fill-opacity="0" d="M0 0h24v24H0z"/></clipPath></defs><path fill="none" d="M0 0h24v24H0z"/><g clip-path="url(#ba)"><path d="M11.29 12l3.54-3.54a1 1 0 00-1.095-1.629c-.122.05-.232.125-.325.219l-4.24 4.24a.988.988 0 00-.296.71 1 1 0 00.296.71L13.41 17a1.01 1.01 0 001.42 0 1 1 0 000-1.41L11.29 12z" fill="#000"/></g></symbol><symbol fill="none" viewBox="0 0 24 24" id="angle-right" xmlns="http://www.w3.org/2000/svg"><defs><clipPath id="ca"><path fill="#fff" fill-opacity="0" d="M0 0h24v24H0z"/></clipPath></defs><path fill="none" d="M0 0h24v24H0z"/><g clip-path="url(#ca)"><path d="M14.83 11.29l-4.24-4.24a1.001 1.001 0 10-1.42 1.41L12.71 12l-3.54 3.54a.999.999 0 00.326 1.626c.122.05.253.075.384.074a1.002 1.002 0 00.71-.29l4.24-4.24a1.004 1.004 0 00.22-1.095.998.998 0 00-.22-.325z" fill="#000"/></g></symbol><symbol fill="none" viewBox="0 0 24 24" id="angle-up" xmlns="http://www.w3.org/2000/svg"><defs><clipPath id="da"><path fill="#fff" fill-opacity="0" d="M0 0h24v24H0z"/></clipPath></defs><g clip-path="url(#da)"><path d="M17 13.41l-4.29-4.24a.996.996 0 00-1.094-.219c-.122.051-.233.125-.326.22l-4.24 4.24a.987.987 0 00-.296.71 1 1 0 001.001 1 .998.998 0 00.705-.29L12 11.29l3.54 3.54a1.001 1.001 0 001.41 0 .999.999 0 00.05-1.42z" fill="#000"/></g></symbol><symbol fill="none" viewBox="0 0 24 24" id="arrow-down" xmlns="http://www.w3.org/2000/svg"><defs><clipPath id="ea"><path fill="#fff" fill-opacity="0" d="M0 0h24v24H0z"/></clipPath></defs><g clip-path="url(#ea)"><path d="M17.71 11.29a.997.997 0 00-1.42 0L13 14.59V7a1 1 0 10-2 0v7.59l-3.29-3.3a1.003 1.003 0 10-1.42 1.42l5 5c.095.091.208.162.33.21a.938.938 0 00.76 0 .998.998 0 00.33-.21l5-5a1.004 1.004 0 00.22-1.095 1.004 1.004 0 00-.22-.325z" fill="#000"/></g></symbol><symbol fill="none" viewBox="0 0 24 24" id="arrow-up" xmlns="http://www.w3.org/2000/svg"><defs><clipPath id="fa"><path fill="#fff" fill-opacity="0" d="M0 0h24v24H0z"/></clipPath></defs><g clip-path="url(#fa)"><path d="M17.71 11.29l-5-5a1.001 1.001 0 00-.33-.21c-.243-.1-.516-.1-.76 0-.122.047-.235.119-.33.21l-5 5a1.002 1.002 0 00-.294.71A1.006 1.006 0 007 13.004c.267 0 .522-.106.71-.294L11 9.41V17a1 1 0 002 0V9.41l3.29 3.3a1.004 1.004 0 101.42-1.42z" fill="#000"/></g></symbol><symbol fill="none" viewBox="0 0 24 24" id="bars" xmlns="http://www.w3.org/2000/svg"><defs><clipPath id="ga"><path fill="#fff" fill-opacity="0" d="M0 0h24v24H0z"/></clipPath></defs><path fill="none" d="M0 0h24v24H0z"/><g clip-path="url(#ga)"><path d="M3 8h18a1 1 0 000-2H3a1 1 0 000 2zm18 8H3a1 1 0 000 2h18a1 1 0 000-2zm0-5H3a1 1 0 000 2h18a1 1 0 000-2z" fill="#000"/></g></symbol><symbol fill="none" viewBox="0 0 24 24" id="close" xmlns="http://www.w3.org/2000/svg"><defs><clipPath id="ha"><path fill="#fff" fill-opacity="0" d="M0 0h24v24H0z"/></clipPath></defs><path fill="none" d="M0 0h24v24H0z"/><g clip-path="url(#ha)"><path d="M13.41 12l4.3-4.29a1.003 1.003 0 10-1.42-1.42L12 10.59l-4.29-4.3a1.004 1.004 0 10-1.42 1.42l4.3 4.29-4.3 4.29a.988.988 0 00-.296.71 1 1 0 00.296.71.996.996 0 001.094.219.993.993 0 00.326-.219l4.29-4.3 4.29 4.3a.997.997 0 001.094.219 1.003 1.003 0 00.326-1.639L13.41 12z" fill="#000"/></g></symbol><symbol fill="none" viewBox="0 0 24 24" id="close-basket" xmlns="http://www.w3.org/2000/svg"><defs><clipPath id="ia"><path fill="#fff" fill-opacity="0" d="M0 0h24v24H0z"/></clipPath></defs><path fill="none" d="M0 0h24v24H0z"/><g clip-path="url(#ia)"><path d="M13.41 12l4.3-4.29a1.003 1.003 0 10-1.42-1.42L12 10.59l-4.29-4.3A1.005 1.005 0 005.996 7c0 .267.106.522.294.71l4.3 4.29-4.3 4.29a1.004 1.004 0 00-.219 1.095c.05.122.125.232.219.325a1.002 1.002 0 001.42 0l4.29-4.3 4.29 4.3a1.002 1.002 0 001.716-.71.998.998 0 00-.296-.71L13.41 12z" fill="#ABABAB"/></g></symbol><symbol fill="none" viewBox="0 0 24 24" id="copy" xmlns="http://www.w3.org/2000/svg"><defs><clipPath id="ja"><path fill="#fff" fill-opacity="0" d="M0 0h24v24H0z"/></clipPath></defs><g clip-path="url(#ja)"><path d="M7.5 6V3a.99.99 0 011-1h12c.26 0 .51.1.7.29a1 1 0 01.3.71v14c0 .26-.11.51-.3.7-.19.19-.44.3-.7.3h-3v3c0 .55-.46 1-1.01 1H4.5c-.13 0-.26-.03-.38-.08a.911.911 0 01-.33-.22c-.09-.09-.17-.2-.22-.32A.986.986 0 013.5 21V7c0-.56.45-1 1.01-1H7.5zm-2 2v12h10V8h-10zm4-2h8v10h2V4h-10v2z" fill="#ABABAB" fill-rule="evenodd"/></g></symbol><symbol fill="none" viewBox="0 0 24 24" id="done" xmlns="http://www.w3.org/2000/svg"><defs><clipPath id="ka"><path fill="#fff" fill-opacity="0" d="M0 0h24v24H0z"/></clipPath></defs><g clip-path="url(#ka)"><path d="M18.71 7.21a1.001 1.001 0 00-1.42 0l-7.45 7.46-3.13-3.14a1.02 1.02 0 00-1.117-.202 1.018 1.018 0 00-.615.955A1.029 1.029 0 005.29 13l3.84 3.84a1.003 1.003 0 001.095.22c.121-.052.232-.126.325-.22l8.16-8.16a.997.997 0 00.238-1.136.995.995 0 00-.238-.334z" fill="#000"/></g></symbol><symbol fill="none" viewBox="0 0 24 24" id="edit" xmlns="http://www.w3.org/2000/svg"><defs><clipPath id="la"><path fill="#fff" fill-opacity="0" d="M0 0h24v24H0z"/></clipPath></defs><g clip-path="url(#la)"><path d="M22 7.24a.994.994 0 00-.29-.71l-4.24-4.24a1.005 1.005 0 00-1.094-.216c-.122.05-.232.123-.326.216l-2.83 2.83L2.29 16.05a1.002 1.002 0 00-.29.71V21a1 1 0 001 1h4.24a1 1 0 00.76-.29l10.87-10.93L21.71 8c.091-.097.165-.208.22-.33.01-.08.01-.16 0-.24a.743.743 0 000-.14l.07-.05zM6.83 20H4v-2.83l9.93-9.93 2.83 2.83L6.83 20zM18.17 8.66l-2.83-2.83 1.42-1.41 2.82 2.82-1.41 1.42z" fill="#000"/></g></symbol><symbol fill="none" viewBox="0 0 24 24" id="exclamation-octagon" xmlns="http://www.w3.org/2000/svg"><defs><clipPath id="ma"><path fill="#fff" fill-opacity="0" d="M0 0h24v24H0z"/></clipPath></defs><path fill="none" d="M0 0h24v24H0z"/><g clip-path="url(#ma)"><path d="M12 7a.99.99 0 00-1 1v4c0 .26.1.51.29.7a1 1 0 00.71.3c.26 0 .51-.11.7-.3.19-.19.3-.44.3-.7V8a1 1 0 00-.3-.71A.984.984 0 0012 7zm0 8c-.2 0-.4.05-.56.16-.16.11-.29.27-.37.45-.07.18-.09.39-.06.58.04.19.14.37.28.51s.32.24.51.28c.19.03.4.02.58-.06.18-.08.34-.21.45-.37A.99.99 0 0013 16a1 1 0 00-.3-.71.984.984 0 00-.7-.29zm9.71-7.45l-5.27-5.26c-.2-.19-.45-.29-.71-.29H8.27c-.27 0-.52.1-.71.29L2.28 7.55C2.1 7.75 2 8 2 8.26v7.47c0 .26.1.51.28.71l5.28 5.27c.19.18.44.28.71.29h7.46c.26-.01.51-.11.71-.29l5.27-5.27c.18-.2.28-.45.29-.71V8.26c-.01-.26-.11-.51-.29-.71zM20 15.3L15.31 20H8.68L4 15.3V8.69L8.68 4h6.63L20 8.69v6.61z" fill="#FF8C39" fill-rule="evenodd"/></g></symbol><symbol fill="none" viewBox="0 0 24 24" id="filter" xmlns="http://www.w3.org/2000/svg"><defs><clipPath id="na"><path fill="#fff" fill-opacity="0" d="M0 0h24v24H0z"/></clipPath></defs><g clip-path="url(#na)"><path d="M19 2H5a3 3 0 00-3 3v1.17c0 .413.085.821.25 1.2v.06c.141.321.341.613.59.86L9 14.41V21a.995.995 0 001.45.89l4-2A1.002 1.002 0 0015 19v-4.59l6.12-6.12c.249-.247.449-.539.59-.86v-.06a3 3 0 00.29-1.2V5a2.999 2.999 0 00-3-3zm-5.71 11.29A.999.999 0 0013 14v4.38l-2 1V14a.994.994 0 00-.29-.71L5.41 8h13.18l-5.3 5.29zM20 6H4V5a1 1 0 011-1h14a1 1 0 011 1v1z" fill="#000"/></g></symbol><symbol fill="none" viewBox="0 0 81 44" id="mail" xmlns="http://www.w3.org/2000/svg"><path d="M11.16 15.5h-8c-1.07 0-2.08.42-2.83 1.17S-.84 18.43-.84 19.5c0 1.06.42 2.07 1.17 2.82s1.76 1.18 2.83 1.18h8c1.06 0 2.07-.43 2.82-1.18a3.99 3.99 0 001.18-2.82c0-1.07-.43-2.08-1.18-2.83a3.98 3.98 0 00-2.82-1.17zM78.28 4.13v-.24A12.016 12.016 0 0068.8-.5H37.08c-2.94-.03-5.79 1.02-8 2.95a11.73 11.73 0 00-3.84 7.05l-3.52 20c-.31 1.72-.23 3.49.23 5.19.45 1.69 1.28 3.26 2.41 4.6 1.12 1.34 2.52 2.42 4.1 3.16 1.58.74 3.31 1.12 5.06 1.13h31.76c2.85.04 5.62-.94 7.82-2.75 2.2-1.82 3.68-4.37 4.18-7.18l3.52-20c.27-1.67.19-3.38-.24-5.03-.44-1.64-1.22-3.17-2.28-4.49zM67.32 7.5l-13.6 11.04c-.81.64-1.83.96-2.86.87a3.99 3.99 0 01-2.66-1.36L38.88 7.5h28.44zm1.92 24.67c-.17.94-.66 1.79-1.39 2.4-.74.61-1.66.94-2.61.93H33.52c-.59-.01-1.16-.14-1.68-.39-.53-.25-.99-.61-1.36-1.06a3.84 3.84 0 01-.8-1.52 3.99 3.99 0 01-.08-1.72l3.2-18.12 9.4 10.64c2.04 2.33 4.91 3.77 7.99 4.04 3.09.26 6.16-.69 8.57-2.64L72.51 13.5l-3.27 18.67zM15.16-.5h-12C2.09-.5 1.08-.08.33.67S-.84 2.43-.84 3.5c0 1.06.42 2.07 1.17 2.82S2.09 7.5 3.16 7.5h12c1.06 0 2.07-.43 2.82-1.18a3.99 3.99 0 001.18-2.82c0-1.07-.43-2.08-1.18-2.83A3.98 3.98 0 0015.16-.5z" fill="#081C00" fill-rule="evenodd"/></symbol><symbol fill="none" viewBox="0 0 24 24" id="plus" xmlns="http://www.w3.org/2000/svg"><defs><clipPath id="pa"><path fill="#fff" fill-opacity="0" d="M0 0h24v24H0z"/></clipPath></defs><g clip-path="url(#pa)"><path d="M19 11h-6V5a1 1 0 00-2 0v6H5a1 1 0 000 2h6v6a1 1 0 002 0v-6h6a1 1 0 000-2z" fill="#000"/></g></symbol><symbol fill="none" viewBox="0 0 24 24" id="searchh" xmlns="http://www.w3.org/2000/svg"><defs><clipPath id="qa"><path fill="#fff" fill-opacity="0" d="M0 0h24v24H0z"/></clipPath></defs><g clip-path="url(#qa)"><path d="M21.71 20.29L18 16.61a9.002 9.002 0 00-7.267-14.628A9 9 0 1016.61 18l3.68 3.68a.997.997 0 001.42 0 1 1 0 000-1.39zM11 18a7 7 0 110-14.002A7 7 0 0111 18z" fill="#000"/></g></symbol><symbol fill="none" viewBox="0 0 24 24" id="shopping-bag" xmlns="http://www.w3.org/2000/svg"><defs><clipPath id="ra"><path fill="#fff" fill-opacity="0" d="M0 0h24v24H0z"/></clipPath></defs><path fill="none" d="M0 0h24v24H0z"/><g clip-path="url(#ra)"><path d="M19 7h-3V6a4 4 0 10-8 0v1H5a1 1 0 00-1 1v11a2.999 2.999 0 003 3h10a3 3 0 003-3V8a1 1 0 00-1-1zm-9-1a2 2 0 014 0v1h-4V6zm8 13a1 1 0 01-1 1H7a1 1 0 01-1-1V9h2v1a1 1 0 002 0V9h4v1a1 1 0 002 0V9h2v10z" fill="#000"/></g></symbol><symbol fill="none" viewBox="0 0 28 28" id="shopping-bag_enabled" xmlns="http://www.w3.org/2000/svg"><defs><clipPath id="sa"><path fill="#fff" fill-opacity="0" d="M0 0h28v28H0z"/></clipPath></defs><path fill="none" d="M0 0h28v28H0z"/><g clip-path="url(#sa)"><path d="M22.166 8.167h-3.5V7a4.667 4.667 0 00-9.333 0v1.167h-3.5a1.166 1.166 0 00-1.167 1.166v12.834a3.5 3.5 0 003.5 3.5h11.667a3.5 3.5 0 003.5-3.5V9.333a1.167 1.167 0 00-1.166-1.166zM11.666 7a2.334 2.334 0 014.667 0v1.167h-4.666V7z" fill="#081C00"/><path d="M19.566 11.937a.83.83 0 00-.27-.2.767.767 0 00-.639 0 .833.833 0 00-.27.2l-6.184 6.812-2.599-2.867a.845.845 0 00-.278-.198.78.78 0 00-.65.013.85.85 0 00-.271.207.947.947 0 00-.18.306 1.018 1.018 0 00.012.715.937.937 0 00.189.299l3.187 3.506a.828.828 0 00.27.2.765.765 0 00.639 0 .829.829 0 00.27-.2l6.774-7.45a.917.917 0 00.197-.306.995.995 0 000-.732.915.915 0 00-.197-.305z" fill="#FFF" fill-rule="evenodd"/></g></symbol><symbol fill="none" viewBox="0 0 24 24" id="trash-alt" xmlns="http://www.w3.org/2000/svg"><defs><clipPath id="ta"><path fill="#fff" fill-opacity="0" d="M0 0h24v24H0z"/></clipPath></defs><g clip-path="url(#ta)"><path d="M10 18a1 1 0 001-1v-6a1 1 0 00-2 0v6a1 1 0 001 1zM20 6h-4V5a2.999 2.999 0 00-3-3h-2a3 3 0 00-3 3v1H4a1 1 0 000 2h1v11a2.999 2.999 0 003 3h8a3 3 0 003-3V8h1a1 1 0 000-2zM10 5a1 1 0 011-1h2a1 1 0 011 1v1h-4V5zm7 14a1 1 0 01-1 1H8a1 1 0 01-1-1V8h10v11zm-3-1a1 1 0 001-1v-6a1 1 0 00-2 0v6a1 1 0 001 1z" fill="#000"/></g></symbol><symbol fill="none" viewBox="0 0 20 16.281" id="twiter" xmlns="http://www.w3.org/2000/svg"><path d="M20 1.95a8.486 8.486 0 01-2.36.64A4.13 4.13 0 0019.45.32c-.806.48-1.69.819-2.61 1a4.1 4.1 0 00-7 3.74A11.638 11.638 0 011.39.77a4.16 4.16 0 00-.55 2.07 4.09 4.09 0 001.82 3.41A4.05 4.05 0 01.8 5.74v.05a4.1 4.1 0 003.3 4 3.93 3.93 0 01-1.1.17 4.89 4.89 0 01-.77-.07 4.11 4.11 0 003.83 2.84A8.22 8.22 0 010 14.43a11.57 11.57 0 006.29 1.85A11.59 11.59 0 0018 4.6v-.53a8.428 8.428 0 002-2.12z" fill="#081C00"/></symbol></svg>