<svg width="24.000000" height="24.000000" viewBox="0 0 24 24" fill="none" xmlns="http://www.w3.org/2000/svg" xmlns:xlink="http://www.w3.org/1999/xlink">
	<desc>
			Created with Pixso.
	</desc>
	<defs>
		<clipPath id="clip6_1168">
			<rect id="angle-down" width="24.000000" height="24.000000" fill="white" fill-opacity="0"/>
		</clipPath>
	</defs>
	<g clip-path="url(#clip6_1168)">
		<path id="Vector" d="M17 9.16992C16.813 8.98364 16.5596 8.87915 16.2954 8.87915C16.0312 8.87915 15.7773 8.98364 15.5903 9.16992L12 12.71L8.45996 9.16992C8.27295 8.98364 8.01953 8.87915 7.75537 8.87915C7.49121 8.87915 7.23779 8.98364 7.05029 9.16992C6.95654 9.26294 6.88184 9.37354 6.83154 9.49536C6.78076 9.61719 6.75439 9.74805 6.75439 9.87988C6.75439 10.012 6.78076 10.1426 6.83154 10.2644C6.88184 10.3865 6.95654 10.4971 7.05029 10.5898L11.29 14.8298C11.3833 14.9236 11.4937 14.998 11.6157 15.0488C11.7373 15.0996 11.8682 15.1257 12 15.1257C12.1323 15.1257 12.2627 15.0996 12.3848 15.0488C12.5068 14.998 12.6172 14.9236 12.71 14.8298L17 10.5898C17.0938 10.4971 17.1685 10.3865 17.2192 10.2644C17.27 10.1426 17.2959 10.012 17.2959 9.87988C17.2959 9.74805 17.27 9.61719 17.2192 9.49536C17.1685 9.37354 17.0938 9.26294 17 9.16992Z" fill="#081C00" fill-opacity="1.000000" fill-rule="evenodd"/>
	</g>
</svg>
